{
    "accessors" : [
        {
            "bufferView" : 0,
            "componentType" : 5123,
            "count" : 7779,
            "max" : [
                1311
            ],
            "min" : [
                0
            ],
            "type" : "SCALAR"
        },
        {
            "bufferView" : 1,
            "componentType" : 5126,
            "count" : 1312,
            "max" : [
                0.8096540570259094,
                1.655869722366333,
                0.09830708801746368
            ],
            "min" : [
                0.11799659579992294,
                1.1540076732635498,
                -0.08362333476543427
            ],
            "type" : "VEC3"
        },
        {
            "bufferView" : 2,
            "componentType" : 5126,
            "count" : 1312,
            "max" : [
                0.9973449110984802,
                0.9932859539985657,
                0.999481201171875
            ],
            "min" : [
                -0.999725341796875,
                -0.9936216473579407,
                -0.9989318251609802
            ],
            "type" : "VEC3"
        },
        {
            "bufferView" : 3,
            "componentType" : 5123,
            "count" : 1312,
            "max" : [
                29,
                28,
                27,
                26
            ],
            "min" : [
                1,
                0,
                0,
                0
            ],
            "type" : "VEC4"
        },
        {
            "bufferView" : 4,
            "componentType" : 5126,
            "count" : 1312,
            "max" : [
                1.0869852304458618,
                0.973936140537262,
                0.8994130492210388,
                0.7742881774902344
            ],
            "min" : [
                1.0125339031219482e-05,
                0.0,
                0.0,
                0.0
            ],
            "type" : "VEC4"
        },
        {
            "bufferView" : 5,
            "componentType" : 5123,
            "count" : 1312,
            "max" : [
                26,
                20,
                5,
                0
            ],
            "min" : [
                0,
                0,
                0,
                0
            ],
            "type" : "VEC4"
        },
        {
            "bufferView" : 6,
            "componentType" : 5126,
            "count" : 1312,
            "max" : [
                0.7080758810043335,
                0.32139649987220764,
                0.5934522747993469,
                0.0
            ],
            "min" : [
                0.0,
                0.0,
                0.0,
                0.0
            ],
            "type" : "VEC4"
        },
        {
            "bufferView" : 7,
            "componentType" : 5126,
            "count" : 30,
            "max" : [
                1.0,
                0.8596273064613342,
                0.6313091516494751,
                0.0,
                0.6915241479873657,
                0.0,
                1.0,
                0.0,
                0.9970391988754272,
                0.4210830330848694,
                0.9906546473503113,
                0.0,
                1.4847444295883179,
                1.3371975421905518,
                1.4662164449691772,
                1.0
            ],
            "min" : [
                -0.5237675309181213,
                -0.25104326009750366,
                -0.9945637583732605,
                0.0,
                -0.879583477973938,
                -0.9791446924209595,
                -0.8537582755088806,
                0.0,
                -0.9992346167564392,
                -1.0,
                -0.9859318137168884,
                0.0,
                -1.3518168926239014,
                0.0,
                -1.4464150667190552,
                1.0
            ],
            "type" : "MAT4"
        }
    ],
    "asset" : {
        "generator" : "Khronos Blender glTF 2.0 exporter",
        "version" : "2.0"
    },
    "bufferViews" : [
        {
            "buffer" : 0,
            "byteLength" : 15558,
            "byteOffset" : 0,
            "target" : 34963
        },
        {
            "buffer" : 0,
            "byteLength" : 15744,
            "byteOffset" : 15560,
            "target" : 34962
        },
        {
            "buffer" : 0,
            "byteLength" : 15744,
            "byteOffset" : 31304,
            "target" : 34962
        },
        {
            "buffer" : 0,
            "byteLength" : 10496,
            "byteOffset" : 47048,
            "target" : 34962
        },
        {
            "buffer" : 0,
            "byteLength" : 20992,
            "byteOffset" : 57544,
            "target" : 34962
        },
        {
            "buffer" : 0,
            "byteLength" : 10496,
            "byteOffset" : 78536,
            "target" : 34962
        },
        {
            "buffer" : 0,
            "byteLength" : 20992,
            "byteOffset" : 89032,
            "target" : 34962
        },
        {
            "buffer" : 0,
            "byteLength" : 1920,
            "byteOffset" : 110024
        }
    ],
    "buffers" : [
        {
            "byteLength" : 111944,
            "uri" : "leftArm.bin"
        }
    ],
    "meshes" : [
        {
            "name" : "Plane_Plane.001",
            "primitives" : [
                {
                    "attributes" : {
                        "JOINTS_0" : 3,
                        "JOINTS_1" : 5,
                        "NORMAL" : 2,
                        "POSITION" : 1,
                        "WEIGHTS_0" : 4,
                        "WEIGHTS_1" : 6
                    },
                    "indices" : 0
                }
            ]
        }
    ],
    "nodes" : [
        {
            "mesh" : 0,
            "name" : "Arms",
            "skin" : 0
        },
        {
            "children" : [
                0,
                3
            ],
            "name" : "rig"
        },
        {
            "name" : "WGT-root"
        },
        {
            "children" : [
                4
            ],
            "name" : "rig_root",
            "rotation" : [
                -0.7071068286895752,
                0.0,
                0.0,
                0.7071068286895752
            ]
        },
        {
            "children" : [
                5
            ],
            "name" : "rig_DEF-upper_arm.01.L",
            "rotation" : [
                0.32076385617256165,
                0.6677731871604919,
                -0.5403212904930115,
                0.3990519940853119
            ],
            "scale" : [
                1.0,
                1.0000001192092896,
                1.0
            ],
            "translation" : [
                0.15560203790664673,
                -0.028266429901123047,
                1.6039400100708008
            ]
        },
        {
            "children" : [
                6
            ],
            "name" : "rig_DEF-upper_arm.02.L",
            "rotation" : [
                3.725290298461914e-08,
                -3.725290298461914e-09,
                -8.702046194741797e-09,
                1.0
            ],
            "scale" : [
                1.0,
                0.9999999403953552,
                1.0
            ],
            "translation" : [
                -1.1811607691925019e-07,
                0.16627246141433716,
                -5.587935447692871e-09
            ]
        },
        {
            "children" : [
                7
            ],
            "name" : "rig_DEF-forearm.01.L",
            "rotation" : [
                0.17297513782978058,
                -0.0033407092560082674,
                -0.027895107865333557,
                0.9845254421234131
            ],
            "scale" : [
                1.0000001192092896,
                1.0000001192092896,
                1.0000001192092896
            ],
            "translation" : [
                1.178705133497715e-09,
                0.16627250611782074,
                -3.725290298461914e-09
            ]
        },
        {
            "children" : [
                8
            ],
            "name" : "rig_DEF-forearm.02.L",
            "rotation" : [
                -1.3180601854401175e-07,
                0.7171972990036011,
                2.2544006128555338e-07,
                0.6968702077865601
            ],
            "scale" : [
                1.0000001192092896,
                1.0000001192092896,
                1.0
            ],
            "translation" : [
                3.4924596548080444e-09,
                0.13335853815078735,
                -3.725290298461914e-09
            ]
        },
        {
            "children" : [
                14,
                19,
                9,
                23,
                28
            ],
            "name" : "rig_DEF-hand.L",
            "rotation" : [
                0.05093466490507126,
                1.1141845845941134e-07,
                -0.013307777233421803,
                0.9986134171485901
            ],
            "scale" : [
                1.0,
                1.0,
                0.9999998807907104
            ],
            "translation" : [
                1.862645149230957e-09,
                0.13335837423801422,
                1.5401019481942058e-07
            ]
        },
        {
            "children" : [
                10
            ],
            "name" : "rig_DEF-palm.02.L",
            "rotation" : [
                0.02410980314016342,
                0.9994910955429077,
                0.018676582723855972,
                -0.009357089176774025
            ],
            "scale" : [
                0.9999999403953552,
                1.0,
                0.9999999403953552
            ],
            "translation" : [
                -0.012941901572048664,
                0.05339520424604416,
                -0.008946474641561508
            ]
        },
        {
            "children" : [
                11
            ],
            "name" : "rig_DEF-f_middle.01.L.01",
            "rotation" : [
                0.1187579557299614,
                -0.9797215461730957,
                0.15738318860530853,
                0.035677190870046616
            ],
            "scale" : [
                1.0000001192092896,
                1.0,
                1.0
            ],
            "translation" : [
                -4.190951585769653e-09,
                0.07335659861564636,
                -4.4819898903369904e-08
            ]
        },
        {
            "children" : [
                12
            ],
            "name" : "rig_DEF-f_middle.01.L.02",
            "rotation" : [
                3.167427848893567e-06,
                -2.582557499408722e-06,
                7.313209380299668e-07,
                1.0
            ],
            "scale" : [
                1.0000001192092896,
                1.0000001192092896,
                1.0
            ],
            "translation" : [
                -1.1175870895385742e-08,
                0.017621226608753204,
                4.17931005358696e-08
            ]
        },
        {
            "children" : [
                13
            ],
            "name" : "rig_DEF-f_middle.02.L",
            "rotation" : [
                0.09848477691411972,
                0.004080230835825205,
                -0.03660938888788223,
                0.9944565892219543
            ],
            "scale" : [
                0.9999999403953552,
                1.0,
                1.0000001192092896
            ],
            "translation" : [
                1.6763806343078613e-08,
                0.01762116141617298,
                7.380731403827667e-08
            ]
        },
        {
            "name" : "rig_DEF-f_middle.03.L",
            "rotation" : [
                0.1564093679189682,
                -0.015810806304216385,
                -0.003221465740352869,
                0.987560510635376
            ],
            "scale" : [
                1.0000001192092896,
                1.0,
                0.9999999403953552
            ],
            "translation" : [
                3.41096892952919e-08,
                0.03266550227999687,
                -9.790164767764509e-08
            ]
        },
        {
            "children" : [
                15
            ],
            "name" : "rig_DEF-palm.01.L",
            "rotation" : [
                0.038751617074012756,
                -0.9977306723594666,
                0.004764749202877283,
                0.05485665425658226
            ],
            "scale" : [
                1.0000001192092896,
                0.9999997615814209,
                1.0
            ],
            "translation" : [
                -0.029736269265413284,
                0.055442072451114655,
                -0.0024790195748209953
            ]
        },
        {
            "children" : [
                16
            ],
            "name" : "rig_DEF-f_index.01.L.01",
            "rotation" : [
                -0.03649650141596794,
                0.9770285487174988,
                -0.20897822082042694,
                0.020282406359910965
            ],
            "scale" : [
                1.0,
                1.0000001192092896,
                1.0
            ],
            "translation" : [
                3.3814799849096744e-09,
                0.07133249938488007,
                -1.555308699607849e-07
            ]
        },
        {
            "children" : [
                17
            ],
            "name" : "rig_DEF-f_index.01.L.02",
            "rotation" : [
                2.487795427441597e-07,
                -2.3725444009414787e-07,
                -1.6577541828155518e-07,
                1.0
            ],
            "scale" : [
                0.9999999403953552,
                1.0,
                1.0
            ],
            "translation" : [
                7.450580596923828e-09,
                0.016582658514380455,
                -2.0489096641540527e-07
            ]
        },
        {
            "children" : [
                18
            ],
            "name" : "rig_DEF-f_index.02.L",
            "rotation" : [
                -0.006796293891966343,
                -0.0028027307707816362,
                -0.0246242955327034,
                0.9996697902679443
            ],
            "scale" : [
                1.0,
                1.0000001192092896,
                1.0
            ],
            "translation" : [
                -3.725290298461914e-09,
                0.01658269204199314,
                -1.494772732257843e-07
            ]
        },
        {
            "name" : "rig_DEF-f_index.03.L",
            "rotation" : [
                0.18441256880760193,
                -0.0011024827836081386,
                -0.0319136306643486,
                0.9823300838470459
            ],
            "scale" : [
                1.0000001192092896,
                1.0,
                1.0
            ],
            "translation" : [
                -7.450580596923828e-09,
                0.024704894050955772,
                -2.7939677238464355e-08
            ]
        },
        {
            "children" : [
                20
            ],
            "name" : "rig_DEF-thumb.01.L.01",
            "rotation" : [
                -0.0024139408487826586,
                0.7156310677528381,
                0.26086390018463135,
                0.6479324102401733
            ],
            "scale" : [
                0.9999999403953552,
                1.0000001192092896,
                1.0000001192092896
            ],
            "translation" : [
                -0.026177113875746727,
                0.02369377389550209,
                0.017601579427719116
            ]
        },
        {
            "children" : [
                21
            ],
            "name" : "rig_DEF-thumb.01.L.02",
            "rotation" : [
                5.252659320831299e-07,
                1.4603137969970703e-06,
                -9.145587682723999e-07,
                1.0
            ],
            "translation" : [
                -1.862645149230957e-09,
                0.02600836753845215,
                1.4901161193847656e-08
            ]
        },
        {
            "children" : [
                22
            ],
            "name" : "rig_DEF-thumb.02.L",
            "rotation" : [
                0.19953195750713348,
                -0.016534077003598213,
                -0.0422237366437912,
                0.9788416624069214
            ],
            "scale" : [
                1.0000001192092896,
                1.0,
                1.0
            ],
            "translation" : [
                8.475035429000854e-08,
                0.02600819617509842,
                -8.195638656616211e-08
            ]
        },
        {
            "name" : "rig_DEF-thumb.03.L",
            "rotation" : [
                0.007369429338723421,
                -0.004189650993794203,
                -0.053503744304180145,
                0.998531699180603
            ],
            "scale" : [
                1.0,
                0.9999999403953552,
                0.9999999403953552
            ],
            "translation" : [
                -1.1175870895385742e-07,
                0.03546090051531792,
                7.450580596923828e-09
            ]
        },
        {
            "children" : [
                24
            ],
            "name" : "rig_DEF-palm.03.L",
            "rotation" : [
                -0.02839379943907261,
                -0.03247837722301483,
                -0.056926973164081573,
                0.9974458813667297
            ],
            "scale" : [
                0.9999999403953552,
                1.0,
                1.0
            ],
            "translation" : [
                0.006606332492083311,
                0.05176139995455742,
                -0.00878005102276802
            ]
        },
        {
            "children" : [
                25
            ],
            "name" : "rig_DEF-f_ring.01.L.01",
            "rotation" : [
                0.25045046210289,
                0.04614304378628731,
                -0.11975651234388351,
                0.9595851898193359
            ],
            "scale" : [
                0.9999998211860657,
                1.0,
                0.9999998807907104
            ],
            "translation" : [
                -1.3969838619232178e-09,
                0.07061976939439774,
                -8.591450750827789e-08
            ]
        },
        {
            "children" : [
                26
            ],
            "name" : "rig_DEF-f_ring.01.L.02",
            "rotation" : [
                1.5646803603885928e-06,
                -1.201406234940805e-06,
                -1.8905851106865157e-07,
                1.0
            ],
            "scale" : [
                0.9999998807907104,
                0.9999999403953552,
                0.9999999403953552
            ],
            "translation" : [
                1.5832483768463135e-08,
                0.017480211332440376,
                -1.3571116141974926e-07
            ]
        },
        {
            "children" : [
                27
            ],
            "name" : "rig_DEF-f_ring.02.L",
            "rotation" : [
                0.13857100903987885,
                -0.015365012921392918,
                0.0038425053935498,
                0.9902258515357971
            ],
            "scale" : [
                0.9999998807907104,
                1.0,
                1.0000001192092896
            ],
            "translation" : [
                -9.313225746154785e-09,
                0.017480293288826942,
                -8.534698281437159e-08
            ]
        },
        {
            "name" : "rig_DEF-f_ring.03.L",
            "rotation" : [
                0.13050419092178345,
                -0.03446561470627785,
                -0.028163321316242218,
                0.9904482364654541
            ],
            "scale" : [
                0.9999999403953552,
                0.9999999403953552,
                0.9999999403953552
            ],
            "translation" : [
                -1.1175870895385742e-08,
                0.034230541437864304,
                -1.7462298274040222e-08
            ]
        },
        {
            "children" : [
                29
            ],
            "name" : "rig_DEF-palm.04.L",
            "rotation" : [
                0.006703164428472519,
                -0.021025190129876137,
                -0.09831441938877106,
                0.994910717010498
            ],
            "scale" : [
                1.0000001192092896,
                1.0,
                1.0000001192092896
            ],
            "translation" : [
                0.025901196524500847,
                0.04946574196219444,
                -0.010876054875552654
            ]
        },
        {
            "children" : [
                30
            ],
            "name" : "rig_DEF-f_pinky.01.L.01",
            "rotation" : [
                0.3369346857070923,
                -0.037031229585409164,
                -0.07372550666332245,
                0.9379063248634338
            ],
            "scale" : [
                1.0,
                0.9999998807907104,
                0.9999999403953552
            ],
            "translation" : [
                1.862645149230957e-09,
                0.06669054925441742,
                -7.715425454080105e-08
            ]
        },
        {
            "children" : [
                31
            ],
            "name" : "rig_DEF-f_pinky.01.L.02",
            "rotation" : [
                1.8859280999095063e-06,
                -1.6619450207144837e-06,
                -5.746259716943314e-07,
                1.0
            ],
            "scale" : [
                1.0000001192092896,
                1.0000001192092896,
                1.0
            ],
            "translation" : [
                3.725290298461914e-09,
                0.014836538583040237,
                4.284083843231201e-08
            ]
        },
        {
            "children" : [
                32
            ],
            "name" : "rig_DEF-f_pinky.02.L",
            "rotation" : [
                -0.0002861294196918607,
                0.0050747874192893505,
                -0.03447883948683739,
                0.9993925094604492
            ],
            "scale" : [
                0.9999998807907104,
                1.0,
                1.0
            ],
            "translation" : [
                3.3527612686157227e-08,
                0.014836661517620087,
                8.381903171539307e-08
            ]
        },
        {
            "name" : "rig_DEF-f_pinky.03.L",
            "rotation" : [
                0.22146667540073395,
                0.004099598620086908,
                -0.0033516408875584602,
                0.9751536846160889
            ],
            "scale" : [
                1.0,
                0.9999998211860657,
                0.9999999403953552
            ],
            "translation" : [
                -7.450580596923828e-09,
                0.019649377092719078,
                2.514570951461792e-08
            ]
        }
    ],
    "scene" : 0,
    "scenes" : [
        {
            "name" : "Scene",
            "nodes" : [
                1
            ]
        }
    ],
    "skins" : [
        {
            "inverseBindMatrices" : 7,
            "joints" : [
                3,
                4,
                5,
                6,
                7,
                8,
                9,
                10,
                11,
                12,
                13,
                14,
                15,
                16,
                17,
                18,
                19,
                20,
                21,
                22,
                23,
                24,
                25,
                26,
                27,
                28,
                29,
                30,
                31,
                32
            ],
            "skeleton" : 1
        }
    ]
}
